<?xml version="1.0" encoding="utf-8"?>
<!-- Generator: Adobe Illustrator 18.1.1, SVG Export Plug-In . SVG Version: 6.00 Build 0)  -->
<svg version="1.1" xmlns="http://www.w3.org/2000/svg" xmlns:xlink="http://www.w3.org/1999/xlink" x="0px" y="0px"
	 viewBox="0 0 500 500" enable-background="new 0 0 500 500" xml:space="preserve">
<g id="BACKGROUND">
	<rect x="0" y="0" fill="#F3F9FF" width="500" height="500"/>
</g>
<g id="OBJECTS">
	<rect x="0" y="0" fill="#FFFFFF" width="500" height="500"/>
	<g>
		<polygon fill="#D0D9FF" points="211.4,371 181.6,388.4 147.3,369.4 124.5,382.6 158.8,401.6 128.9,419 155,433.5 184.9,416.1 
			219.2,435.1 242,421.9 207.7,402.9 237.6,385.5 		"/>
		<polygon fill="#D0D9FF" points="346.6,428.7 392.6,402.2 373.8,391 327.9,417.4 		"/>
		<polygon fill="#D0D9FF" points="277.7,388.9 52,258.3 182.4,183 408,313.6 		"/>
		<polygon opacity="0.48" fill="#D0D9FF" points="116.5,412.2 106,431.2 74.3,426.6 66.3,441 98.1,445.6 87.6,464.6 111.8,468.1 
			122.2,449.1 154,453.8 162,439.3 130.2,434.7 140.7,415.7 		"/>
	</g>
	<g>
		<g>
			<g>
				<path fill="#FFAE00" d="M185.6,100.6l0-0.6l-7.9-5.1c-0.2-0.1-0.4-0.3-0.6-0.4l-0.2-0.1l0,0c-5-2.7-11.8-2.1-19.2,2.3
					c-15.5,9.2-28.1,31.7-28.1,50.2c0,8.8,2.8,15.1,7.5,18.3l0,0l0.1,0.1c0.5,0.3,6.2,4,6.8,4.3l2-0.9l2.7,1.8
					c4.1,0.3,8.7-0.9,13.7-3.9c15.5-9.2,28.1-31.7,28.1-50.2C190.3,109.5,188.6,104.2,185.6,100.6z M162.2,151.4
					c-8.5,5-15.4,0.9-15.4-9.2c0-10.1,6.9-22.4,15.4-27.5c8.5-5,15.4-0.9,15.4,9.2C177.6,134.1,170.7,146.4,162.2,151.4z"/>
			</g>
			<g>
				<path fill="#FFD600" d="M148.9,103.5l17.6,9.4c0.6-0.2,1.2-0.3,1.8-0.3v-9.9l-10.9-5.8C154.4,98.7,151.5,100.9,148.9,103.5z"/>
				<path fill="#FFD600" d="M157.8,168.8v-15.5c-5.7,1.3-10-2-10.8-8.6l-16.2-8.6c-0.8,3.7-1.3,7.4-1.3,10.9c0,3.1,0.4,5.9,1,8.3
					l26.2,14C157.1,169.1,157.5,168.9,157.8,168.8z"/>
				<path fill="#FFD600" d="M146.9,140.3c0.2-3.1,1.1-6.3,2.3-9.4v-0.5l-13.9-7.4c-1.4,3-2.6,6.1-3.5,9.2L146.9,140.3z"/>
				<path fill="#FFD600" d="M145.2,125.6v-2.8l-7.7-4c-0.4,0.7-0.8,1.4-1.1,2.2L145.2,125.6z"/>
				<path fill="#FFD600" d="M156.3,113.8V111l-9.7-5.1c-0.6,0.6-1.1,1.3-1.7,1.9L156.3,113.8z"/>
			</g>
			<g>
				<path fill="#FFE300" d="M165.1,153.1c-8.5,5-15.4,0.9-15.4-9.2s6.9-22.4,15.4-27.5c8.5-5,15.4-0.9,15.4,9.2
					C180.5,135.8,173.6,148.1,165.1,153.1z"/>
			</g>
			<g>
				<path fill="#FF7C00" d="M193.2,118.4c0-18.5-12.6-26.1-28.1-16.9c-15.5,9.2-28.1,31.7-28.1,50.2s12.6,26.1,28.1,16.9
					C180.6,159.4,193.2,136.9,193.2,118.4z M149.8,144.2c0-10.1,6.9-22.4,15.4-27.5c8.5-5,15.4-0.9,15.4,9.2
					c0,10.1-6.9,22.4-15.4,27.5C156.7,158.5,149.8,154.3,149.8,144.2z"/>
			</g>
			<g>
				<path fill="#FFAE00" d="M187.8,121.3c0-15-10.2-21.1-22.7-13.6c-12.5,7.4-22.7,25.6-22.7,40.6c0,15,10.2,21.1,22.7,13.6
					C177.7,154.5,187.8,136.3,187.8,121.3z"/>
			</g>
			<path fill="#FFD900" d="M180,105.5l-37.1,37.1c-0.3,1.9-0.5,3.8-0.5,5.7c0,5.9,1.6,10.4,4.2,13.2l41.1-41.1
				C187.6,112.7,184.6,107.5,180,105.5z M156,165c7.8-7.5,18.8-18.7,29.2-29.3c0.9-2.7,1.7-5.4,2.1-8.1l-36.6,36.6
				C152.3,164.9,154.1,165.1,156,165z"/>
		</g>
		<g>
			<path fill="#FF7C00" d="M176.4,132.4c0,2.8-0.7,5.6-2.1,8.4c-1.4,2.8-3.1,5.1-5.2,7.2v3.5c0,0.7,0,1.2,0,1.6
				c0,0.4-0.1,0.9-0.3,1.4c-0.2,0.6-0.5,1.1-0.9,1.6c-0.4,0.5-0.9,0.9-1.6,1.4c-0.7,0.5-1.2,0.8-1.6,0.9c-0.4,0.1-0.7,0-0.8-0.4
				c-0.2-0.3-0.3-0.7-0.3-1c0-0.3,0-0.8,0-1.6V152c-1.3,0.6-2.5,0.9-3.5,0.9c-1,0-1.8-0.1-2.2-0.4l-0.6-0.5c-0.7-0.5-1-1-1-1.6
				c0-0.9,0.5-2.4,1.6-4.4c0.6-1.2,1.3-2,1.9-2.5c0.8-0.6,1.7-0.6,2.8-0.1l0.2,0.1c1,0.7,2.1,0.6,3.3-0.3c2.3-1.7,3.5-3.7,3.5-5.9
				c0-0.8-0.4-1.1-1.3-0.9c-0.9,0.2-2,0.6-3.2,1.2c-1.3,0.6-2.5,1-3.8,1.4c-1.3,0.3-2.3,0.1-3.2-0.7c-0.9-0.8-1.3-2.3-1.3-4.5
				c0-2.2,0.6-4.5,1.8-7.2c1.2-2.6,2.9-5,5-7v-3.1c0-0.7,0-1.3,0-1.6c0-0.4,0.1-0.8,0.3-1.4c0.2-0.6,0.4-1.1,0.9-1.6
				c0.4-0.5,0.9-1,1.6-1.5c0.9-0.6,1.5-0.9,1.9-0.8c0.4,0.1,0.7,0.4,0.7,0.8c0.1,0.4,0.1,1.1,0.1,2v3.1c0.9-0.4,1.7-0.7,2.4-0.8
				c0.7-0.1,1.2-0.2,1.5-0.1l0.4,0.1l0.2,0c0.8,0.3,1.2,0.6,1.2,1.2c0,0.6-0.3,1.7-0.9,3.2c-0.9,2.1-1.7,3.4-2.6,4.1
				c-0.6,0.4-1.2,0.6-1.9,0.5c-0.1,0-0.2-0.1-0.4-0.1c-0.2-0.1-0.4-0.1-0.6-0.1c-0.2,0-0.5,0.1-0.9,0.2c-0.4,0.2-0.9,0.5-1.5,0.9
				c-0.6,0.4-1.2,1.1-1.7,1.9c-0.5,0.8-0.8,1.6-0.8,2.4c0,0.9,0.3,1.3,1,1.3c0.6,0,1.4-0.2,2.4-0.8c0.9-0.5,2-1,3.1-1.5
				c1.1-0.4,2.2-0.8,3.1-0.9c0.9-0.2,1.7,0.1,2.4,1C176.1,129.1,176.4,130.4,176.4,132.4z"/>
		</g>
	</g>
	<g>
		<g>
			<path opacity="0.49" fill="#FFAE00" d="M187.7,133.6c0-5.6,2.1-11.9,5.5-17.2c-0.4-8-3.4-13.6-7.9-16.5
				c-8.9,10.9-14.9,25.6-14.9,38.5c0,8.8,2.8,15.1,7.5,18.3l0,0l0.1,0.1c0.1,0,0.2,0.1,0.4,0.2c4.2-5.2,7.8-11.2,10.4-17.5
				C188,137.8,187.7,135.8,187.7,133.6z"/>
			<g>
				<path fill="#FFAE00" d="M230.7,92.5l0-0.6l-7.9-5.1c-0.2-0.1-0.4-0.3-0.6-0.4l-0.2-0.1l0,0c-5-2.7-11.8-2.1-19.2,2.3
					c-15.5,9.2-28.1,31.7-28.1,50.2c0,8.8,2.8,15.1,7.5,18.3l0,0l0.1,0.1c0.5,0.3,6.2,4,6.8,4.3l2-0.9l2.7,1.8
					c4.1,0.3,8.7-0.9,13.7-3.9c15.5-9.2,28.1-31.7,28.1-50.2C235.4,101.4,233.7,96,230.7,92.5z M207.3,143.3
					c-8.5,5-15.4,0.9-15.4-9.2s6.9-22.4,15.4-27.5c8.5-5,15.4-0.9,15.4,9.2C222.7,126,215.8,138.3,207.3,143.3z"/>
			</g>
			<g>
				<path fill="#FFD600" d="M194,95.4l17.6,9.4c0.6-0.2,1.2-0.3,1.8-0.3v-9.9l-10.9-5.8C199.5,90.6,196.6,92.8,194,95.4z"/>
				<path fill="#FFD600" d="M202.9,160.7v-15.5c-5.7,1.3-10-2-10.8-8.6l-16.2-8.6c-0.8,3.7-1.3,7.4-1.3,10.9c0,3.1,0.4,5.9,1,8.3
					l26.2,14C202.2,160.9,202.6,160.8,202.9,160.7z"/>
				<path fill="#FFD600" d="M192.1,132.2c0.2-3.1,1.1-6.3,2.3-9.4v-0.5l-13.9-7.4c-1.4,3-2.6,6.1-3.5,9.2L192.1,132.2z"/>
				<path fill="#FFD600" d="M190.3,117.5v-2.8l-7.7-4c-0.4,0.7-0.8,1.4-1.1,2.2L190.3,117.5z"/>
				<path fill="#FFD600" d="M201.4,105.6v-2.8l-9.7-5.1c-0.6,0.6-1.1,1.3-1.7,1.9L201.4,105.6z"/>
			</g>
			<g>
				<path fill="#FFE300" d="M210.2,145c-8.5,5-15.4,0.9-15.4-9.2c0-10.1,6.9-22.4,15.4-27.5c8.5-5,15.4-0.9,15.4,9.2
					C225.6,127.7,218.7,140,210.2,145z"/>
			</g>
			<g>
				<path fill="#FF7C00" d="M238.3,110.3c0-18.5-12.6-26.1-28.1-16.9c-15.5,9.2-28.1,31.7-28.1,50.2s12.6,26.1,28.1,16.9
					C225.7,151.3,238.3,128.8,238.3,110.3z M194.9,136.1c0-10.1,6.9-22.4,15.4-27.5c8.5-5,15.4-0.9,15.4,9.2
					c0,10.1-6.9,22.4-15.4,27.5C201.8,150.3,194.9,146.2,194.9,136.1z"/>
			</g>
			<g>
				<path fill="#FFAE00" d="M232.9,113.2c0-15-10.2-21.1-22.7-13.6c-12.5,7.4-22.7,25.6-22.7,40.6c0,15,10.2,21.1,22.7,13.6
					C222.8,146.3,232.9,128.2,232.9,113.2z"/>
			</g>
			<path fill="#FFD900" d="M225.1,97.4L188,134.4c-0.3,1.9-0.5,3.8-0.5,5.7c0,5.9,1.6,10.4,4.2,13.2l41.1-41.1
				C232.7,104.6,229.7,99.4,225.1,97.4z M201.1,156.9c7.8-7.5,18.8-18.7,29.2-29.3c0.9-2.7,1.7-5.4,2.1-8.1l-36.6,36.6
				C197.4,156.8,199.2,157,201.1,156.9z"/>
		</g>
		<g>
			<path fill="#FF7C00" d="M221.5,124.2c0,2.8-0.7,5.6-2.1,8.4c-1.4,2.8-3.1,5.1-5.2,7.2v3.5c0,0.7,0,1.2,0,1.6
				c0,0.4-0.1,0.9-0.3,1.4c-0.2,0.6-0.5,1.1-0.9,1.6c-0.4,0.5-0.9,0.9-1.6,1.4c-0.7,0.5-1.2,0.8-1.6,0.9c-0.4,0.1-0.7,0-0.8-0.4
				c-0.2-0.3-0.3-0.7-0.3-1c0-0.3,0-0.8,0-1.6v-3.4c-1.3,0.6-2.5,0.9-3.5,0.9c-1,0-1.8-0.1-2.2-0.4l-0.6-0.5c-0.7-0.5-1-1-1-1.6
				c0-0.9,0.5-2.4,1.6-4.4c0.6-1.2,1.3-2,1.9-2.5c0.8-0.6,1.7-0.6,2.8-0.1l0.2,0.1c1,0.7,2.1,0.6,3.3-0.3c2.3-1.7,3.5-3.7,3.5-5.9
				c0-0.8-0.4-1.1-1.3-0.9c-0.9,0.2-2,0.6-3.2,1.2c-1.3,0.6-2.5,1-3.8,1.4c-1.3,0.3-2.3,0.1-3.2-0.7c-0.9-0.8-1.3-2.3-1.3-4.5
				c0-2.2,0.6-4.5,1.8-7.2c1.2-2.6,2.9-5,5-7v-3.1c0-0.7,0-1.3,0-1.6c0-0.4,0.1-0.8,0.3-1.4c0.2-0.6,0.4-1.1,0.9-1.6
				c0.4-0.5,0.9-1,1.6-1.5c0.9-0.6,1.5-0.9,1.9-0.8c0.4,0.1,0.7,0.4,0.7,0.8c0.1,0.4,0.1,1.1,0.1,2v3.1c0.9-0.4,1.7-0.7,2.4-0.8
				c0.7-0.1,1.2-0.2,1.5-0.1l0.4,0.1l0.2,0c0.8,0.3,1.2,0.6,1.2,1.2c0,0.6-0.3,1.7-0.9,3.2c-0.9,2.1-1.7,3.4-2.6,4.1
				c-0.6,0.4-1.2,0.6-1.9,0.5c-0.1,0-0.2-0.1-0.4-0.1c-0.2-0.1-0.4-0.1-0.6-0.1c-0.2,0-0.5,0.1-0.9,0.2c-0.4,0.2-0.9,0.5-1.5,0.9
				c-0.6,0.4-1.2,1.1-1.7,1.9c-0.5,0.8-0.8,1.6-0.8,2.4c0,0.9,0.3,1.3,1,1.3c0.6,0,1.4-0.2,2.4-0.8c0.9-0.5,2-1,3.1-1.5
				c1.1-0.4,2.2-0.8,3.1-0.9c0.9-0.2,1.7,0.1,2.4,1C221.2,120.9,221.5,122.3,221.5,124.2z"/>
		</g>
	</g>
	<g>
		<polygon fill="#FFBC00" points="470.6,301.7 324.1,386.8 313.3,380.6 459.8,295.5 		"/>
		<polygon fill="#FFD600" points="432.6,320.8 356.9,364.8 351.3,361.5 427,317.5 		"/>
		<polygon fill="#D0D9FF" points="471,315.9 324.5,401.6 300.7,409.3 313.7,393.6 460.7,309.3 		"/>
		<polygon fill="#9FC9FF" points="456.6,309.8 470.6,301.7 459.8,295.5 445.8,303.6 		"/>
		<polygon fill="#BBE7FF" points="448.1,302.2 458.9,308.5 470.5,301.7 459.8,295.5 		"/>
		<polygon fill="#FFC08E" points="324.1,386.8 297.6,402.3 313.3,380.6 		"/>
		<polygon fill="#00003B" points="312,393.8 306.2,390.4 297.6,402.3 		"/>
		<polygon fill="#FFA16E" points="324.1,386.8 324.1,399.5 297.6,402.3 		"/>
		<polygon fill="#000024" points="312,400.7 312,393.8 305.5,397.5 297.6,402.3 		"/>
		<polygon fill="#FF7C00" points="470.6,301.7 470.6,313.7 324.1,399.5 324.1,386.8 		"/>
		<polygon fill="#4C7FFF" points="456.6,321.8 465.8,316.5 465.8,311.1 464.7,306.8 464.3,305.3 456.6,309.8 		"/>
		<polygon fill="#3956FF" points="458.9,320.5 468.1,315.1 468.1,309.8 467,305.5 466.5,304 458.9,308.5 		"/>
		<polygon fill="#BE0E4B" points="470.6,313.7 470.6,301.7 461.7,306.8 461.7,306.8 461.7,318.9 		"/>
		<polygon fill="#FF1576" points="461.7,306.8 470.6,301.7 459.8,295.5 450.9,300.6 		"/>
	</g>
	<g>
		<polygon fill="#0474C4" points="392.6,401.7 392.6,391.8 346.6,418.3 346.6,418.3 346.6,428.4 		"/>
		<polygon fill="#04A1FB" points="346.6,418.3 392.6,391.8 373.8,381 327.9,407.5 		"/>
		<polygon fill="#0438C1" points="346.6,428.4 327.9,417 327.9,407.5 346.6,418.3 		"/>
	</g>
	<g>
		<g>
			<polygon fill="#FC4900" points="281.8,190.1 251.6,171.8 251.6,85.8 281.8,104.1 			"/>
			<polygon fill="#FFAF00" points="276.4,179 257,167.2 257,97.2 276.4,108.9 			"/>
			<polygon fill="#DE3000" points="338.4,41.7 338.4,53.7 325.8,61.4 271.9,94.6 263.5,90.6 259.3,85.8 			"/>
			<polygon fill="#D8F1FF" points="262.7,90 281.9,101.6 354.9,60.6 333.5,49.6 			"/>
			<polygon fill="#FFAF00" points="281.8,190.1 364.7,143.5 364.7,57.5 281.8,104.1 			"/>
			<polygon fill="#FF182A" points="327.4,158 357.2,141.2 357.2,132.9 327.4,149.6 			"/>
			<polygon fill="#FF182A" points="327.4,145.4 357.2,128.7 357.2,125 327.4,141.8 			"/>
			<polygon fill="#FF7700" points="359.1,54.2 281.9,97.5 262.7,85.9 338.4,41.7 332.9,38.3 251.6,85.8 281.8,104.1 364.7,57.5 			
				"/>
		</g>
		<g>
			<polygon fill="#000F6C" points="323.3,213.4 293.1,195.2 293.1,68.1 323.3,86.4 			"/>
			<polygon fill="#FF182A" points="319.5,175.7 296.8,162.1 296.8,153.8 319.5,167.5 			"/>
			<polygon fill="#0023C0" points="319.5,189.3 296.8,175.6 296.8,167.4 319.5,181.1 			"/>
			<polygon fill="#001897" points="379.8,24 379.8,35.9 367.2,43.7 313.3,76.9 305,72.9 300.7,68.1 			"/>
			<polygon fill="#D8F1FF" points="304.1,72.3 323.4,83.9 396.3,42.9 375,31.9 			"/>
			<polygon fill="#FFAF00" points="361,169 414.5,139 414.5,63 361,93.1 			"/>
			<polygon fill="#FF182A" points="382.7,174.2 422.9,151.6 422.9,94.5 382.7,117.1 			"/>
			<polygon fill="#0023C0" points="323.3,213.4 406.1,166.9 406.1,39.8 323.3,86.4 			"/>
			<polygon fill="#0016A9" points="323.3,172 406.1,125.4 406.1,39.8 323.3,86.4 			"/>
			<path fill="#0074FF" d="M385.3,80.4v-6.7c0,0-23.4,13.3-23.6,13.4c-0.3,0.2-8.7,4.5-10.9,9.5c-2.2,5.1-3.8,11.6-3.8,11.6l1.8-1
				c0,0,2.4-6.5,5.3-9l4.8-2.7c0,0,0.7,9.1-2.7,19.2c-3.4,10.2-6.7,14.8-5.6,18.9c1.2,4.1,8.6,0.6,10.2-12.7
				c1.6-13.3,1.7-27.8,1.7-27.8l8.2-4.6l-1.2,28.2c0,0-1.2,8.2,6.5,4.9c7.7-3.4,9.3-17.7,9.3-17.7l-1.7,1c0,0,0.1,5.6-4.2,7.9
				c-4.3,2.3-4.7-3.5-4.6-8.1c0.1-4.6,1.3-19.3,1.3-19.3L385.3,80.4z"/>
			<polygon fill="#003BF2" points="400.5,36.5 323.4,79.8 304.1,68.2 379.8,24 374.3,20.6 293.1,68.1 323.3,86.4 406.1,39.8 			"/>
		</g>
	</g>
	<g>
		<path fill="#00EEC4" d="M309.5,110.4v112.4l91.7,55.2L309.5,110.4z M323.6,169.5l37.8,69.1l-37.8-22.8V169.5z"/>
		<polygon fill="#62FFE5" points="309.5,111.5 309.5,119.8 393.7,273.5 400.5,277.6 		"/>
		<polygon fill="#00C3CB" points="309.5,105.1 309.5,118.8 394.4,273.9 405,280.3 		"/>
	</g>
	<g>
		<g>
			<polygon fill="#C30000" points="112.5,351.7 94.4,362.4 66.3,304 66.3,294.7 84.4,293.4 112.5,342.4 			"/>
			<polygon fill="#800000" points="94.4,353 94.4,362.4 112.5,351.7 112.5,342.4 			"/>
			<path fill="#C30000" d="M63.5,320.9c7.1,4.1,7.3,10.6,0.5,14.6s-18,4-25.1-0.1c-7.1-4.1-7.3-10.6-0.5-14.6
				C45.2,316.8,56.4,316.9,63.5,320.9z"/>
			<polygon fill="#C30000" points="68.9,319.1 33.5,318.5 33.5,327.9 56.4,334.3 68.9,328.9 			"/>
			<path fill="#C30000" d="M140.3,321.2c7.1,4.1,7.3,10.6,0.5,14.6s-18,4-25.1-0.1c-7.1-4.1-7.3-10.6-0.5-14.6
				C122,317.1,133.2,317.1,140.3,321.2z"/>
			<polygon fill="#C30000" points="110.3,319.1 145.7,319.1 145.7,328.6 110.3,327.9 			"/>
		</g>
		<g>
			<polygon fill="#FC0526" points="112.5,342.4 94.4,353 66.3,294.7 84.4,284 			"/>
			<path fill="#FC0526" d="M63.5,311.6c7.1,4.1,7.3,10.6,0.5,14.6s-18,4-25.1-0.1c-7.1-4.1-7.3-10.6-0.5-14.6S56.4,307.5,63.5,311.6
				z"/>
			<path fill="#FC0526" d="M140.3,311.8c7.1,4.1,7.3,10.6,0.5,14.6s-18,4-25.1-0.1c-7.1-4.1-7.3-10.6-0.5-14.6
				C122,307.7,133.2,307.8,140.3,311.8z"/>
		</g>
	</g>
	<g>
		<polygon fill="#FF9A00" points="211.4,369.9 181.6,387.2 147.3,368.2 124.5,372 124.5,381.5 158.8,400.5 128.9,408.4 128.9,417.9 
			155,432.3 184.9,414.9 219.2,433.9 242,420.7 242,411.2 207.7,401.7 237.6,384.3 237.6,374.9 		"/>
		<polygon fill="#FFCC00" points="211.4,360.4 181.6,377.8 147.3,358.8 124.5,372 158.8,391 128.9,408.4 155,422.8 184.9,405.5 
			219.2,424.5 242,411.2 207.7,392.2 237.6,374.9 		"/>
		<polygon fill="#FF5000" points="155,422.8 155,432.3 128.9,417.9 128.9,408.4 		"/>
		<polygon fill="#FF5000" points="242,411.2 219.2,424.5 219.2,433.9 242,420.7 		"/>
	</g>
	<g>
		<polygon fill="#0474C4" points="109.4,394.9 100.7,418.3 72.9,423.4 62,435.9 66.3,441.2 94.1,436.1 81.1,454.1 85.4,459.4 
			106.6,455.5 115.3,432.2 143,427.1 149.7,409.3 145.3,404 121.9,414.4 130.6,391 126.2,385.7 		"/>
		<polygon fill="#04A1FB" points="105.1,389.6 96.4,413 68.6,418.1 62,435.9 89.8,430.8 81.1,454.1 102.2,450.2 110.9,426.9 
			138.7,421.8 145.3,404 117.5,409.1 126.2,385.7 		"/>
		<polygon fill="#0438C1" points="102.2,450.2 106.6,455.5 85.4,459.4 81.1,454.1 		"/>
		<polygon fill="#0438C1" points="145.3,404 138.7,421.8 143,427.1 149.7,409.3 		"/>
	</g>
	<g>
		<g>
			<g>
				<polygon fill="#042750" points="277.7,387.6 52,257.1 182.4,181.8 408,312.4 				"/>
				<polygon fill="#044A88" points="277.7,375.6 52,245 182.4,169.8 408,300.4 				"/>
				<polygon fill="#041431" points="408,300.4 408,312.4 277.7,387.7 277.7,375.6 				"/>
				<polygon fill="#043077" points="52,245.1 52,257.1 277.7,387.7 277.7,375.6 				"/>
			</g>
			<polygon fill="#045A9A" points="243.5,205.1 182.4,169.8 52,245.1 113.1,280.4 			"/>
			<polygon fill="#041431" points="226.2,203.4 183.6,178.7 69.2,244.9 111.9,269.6 			"/>
			<polygon fill="#D2F2FF" points="220.5,203.6 183.4,182.1 75.7,244.7 112.9,266.2 			"/>
			<g>
				<polygon fill="#F2FFFF" points="112.9,223.1 89.8,236.5 164,236.5 187.1,223.1 				"/>
				<polygon fill="#F2FFFF" points="125.7,215.7 199.9,215.7 220.5,203.6 196.3,189.6 172,188.8 				"/>
				
					<text transform="matrix(0.8384 -0.4855 0.862 0.5069 184.3502 217.6755)" fill="#80B7D5" font-family="'JosefinSans-Bold'" font-size="43.1964" letter-spacing="-4.1">0.</text>
				<polygon fill="#F2FFFF" points="129.3,256.6 140.8,249.9 84.8,249.9 96.4,256.6 				"/>
			</g>
			<g>
				<g>
					<polygon fill="#C30000" points="176.4,280.8 154.9,293.3 132,280.1 132,276.3 153.4,267.5 176.4,277 					"/>
					<polygon fill="#FC0526" points="176.4,277 154.9,289.6 132,276.3 153.4,263.8 					"/>
					<polygon fill="#D80516" points="172.3,277 154.8,287.2 136,276.4 153.6,266.1 					"/>
				</g>
				<g>
					<polygon fill="#C30000" points="204.8,264.1 183.4,276.7 160.4,263.4 160.4,259.7 181.8,250.9 204.8,260.4 					"/>
					<polygon fill="#FC0526" points="204.8,260.4 183.4,273 160.4,259.7 181.8,247.2 					"/>
					<polygon fill="#D80516" points="200.7,260.4 183.2,270.6 164.5,259.8 182,249.5 					"/>
				</g>
				<g>
					<polygon fill="#3669BF" points="233.2,247.5 211.8,260.1 188.8,246.8 188.8,243.1 210.3,234.3 233.2,243.8 					"/>
					<polygon fill="#5096DE" points="233.2,243.8 211.8,256.3 188.8,243.1 210.3,230.6 					"/>
					<polygon fill="#7CC3F4" points="229.2,243.7 211.6,254 192.9,243.2 210.4,232.9 					"/>
				</g>
				<g>
					<polygon fill="#3669BF" points="261.6,230.9 240.2,243.4 217.3,230.2 217.3,226.5 238.7,217.7 261.6,227.2 					"/>
					<polygon fill="#5096DE" points="261.6,227.2 240.2,239.7 217.3,226.5 238.7,213.9 					"/>
					<polygon fill="#7CC3F4" points="257.6,227.1 240.1,237.4 221.3,226.5 238.8,216.3 					"/>
				</g>
			</g>
			<g>
				<g>
					<polygon fill="#89ABFF" points="206.5,298.3 185.1,310.8 162.1,297.6 162.1,293.9 183.5,285.1 206.5,294.6 					"/>
					<polygon fill="#B3D4FF" points="206.5,294.6 185.1,307.1 162.1,293.9 183.5,281.3 					"/>
					<polygon fill="#D4EAFF" points="202.4,294.5 184.9,304.8 166.2,293.9 183.7,283.7 					"/>
				</g>
				<g>
					<polygon fill="#89ABFF" points="234.9,281.7 213.5,294.2 190.5,281 190.5,277.2 212,268.4 234.9,277.9 					"/>
					<polygon fill="#B3D4FF" points="234.9,277.9 213.5,290.5 190.5,277.2 212,264.7 					"/>
					<polygon fill="#D4EAFF" points="230.9,277.9 213.3,288.1 194.6,277.3 212.1,267 					"/>
				</g>
				<g>
					<polygon fill="#89ABFF" points="263.3,265.1 241.9,277.6 219,264.4 219,260.6 240.4,251.8 263.3,261.3 					"/>
					<polygon fill="#B3D4FF" points="263.3,261.3 241.9,273.9 219,260.6 240.4,248.1 					"/>
					<polygon fill="#D4EAFF" points="259.3,261.3 241.8,271.5 223,260.7 240.5,250.4 					"/>
				</g>
				<g>
					<polygon fill="#3669BF" points="291.7,248.4 270.3,261 247.4,247.7 247.4,244 268.8,235.2 291.7,244.7 					"/>
					<polygon fill="#5096DE" points="291.7,244.7 270.3,257.2 247.4,244 268.8,231.5 					"/>
					<polygon fill="#7CC3F4" points="287.7,244.6 270.2,254.9 251.4,244.1 268.9,233.8 					"/>
				</g>
			</g>
			<g>
				<g>
					<polygon fill="#89ABFF" points="236.6,315.8 215.2,328.4 192.3,315.1 192.3,311.4 213.7,302.6 236.6,312.1 					"/>
					<polygon fill="#B3D4FF" points="236.6,312.1 215.2,324.6 192.3,311.4 213.7,298.9 					"/>
					<polygon fill="#D4EAFF" points="232.6,312 215.1,322.3 196.3,311.5 213.8,301.2 					"/>
				</g>
				<g>
					<polygon fill="#89ABFF" points="265,299.2 243.6,311.7 220.7,298.5 220.7,294.8 242.1,286 265,295.5 					"/>
					<polygon fill="#B3D4FF" points="265,295.5 243.6,308 220.7,294.8 242.1,282.2 					"/>
					<polygon fill="#D4EAFF" points="261,295.4 243.5,305.7 224.7,294.8 242.2,284.6 					"/>
				</g>
				<g>
					<polygon fill="#89ABFF" points="293.4,282.6 272,295.1 249.1,281.9 249.1,278.1 270.5,269.3 293.4,278.9 					"/>
					<polygon fill="#B3D4FF" points="293.4,278.9 272,291.4 249.1,278.1 270.5,265.6 					"/>
					<polygon fill="#D4EAFF" points="289.4,278.8 271.9,289 253.1,278.2 270.6,268 					"/>
				</g>
				<g>
					<polygon fill="#3669BF" points="321.9,266 300.5,278.5 277.5,265.3 277.5,261.5 298.9,252.7 321.9,262.2 					"/>
					<polygon fill="#5096DE" points="321.9,262.2 300.5,274.8 277.5,261.5 298.9,249 					"/>
					<polygon fill="#7CC3F4" points="317.8,262.2 300.3,272.4 281.6,261.6 299.1,251.3 					"/>
				</g>
			</g>
			<g>
				<g>
					<polygon fill="#89ABFF" points="266.7,333.4 245.3,345.9 222.4,332.6 222.4,328.9 243.8,320.1 266.7,329.6 					"/>
					<polygon fill="#B3D4FF" points="266.7,329.6 245.3,342.2 222.4,328.9 243.8,316.4 					"/>
					<polygon fill="#D4EAFF" points="262.7,329.6 245.2,339.8 226.4,329 243.9,318.7 					"/>
				</g>
				<g>
					<polygon fill="#89ABFF" points="295.1,316.7 273.7,329.3 250.8,316 250.8,312.3 272.2,303.5 295.1,313 					"/>
					<polygon fill="#B3D4FF" points="295.1,313 273.7,325.5 250.8,312.3 272.2,299.8 					"/>
					<polygon fill="#D4EAFF" points="291.1,312.9 273.6,323.2 254.8,312.4 272.3,302.1 					"/>
				</g>
				<g>
					<polygon fill="#89ABFF" points="323.6,300.1 302.2,312.6 279.2,299.4 279.2,295.7 300.6,286.9 323.6,296.4 					"/>
					<polygon fill="#B3D4FF" points="323.6,296.4 302.2,308.9 279.2,295.7 300.6,283.1 					"/>
					<polygon fill="#D4EAFF" points="319.5,296.3 302,306.6 283.3,295.7 300.8,285.5 					"/>
				</g>
				<g>
					<polygon fill="#FF7D00" points="382.2,300.9 360.8,313.4 307.5,282.8 307.5,279.1 328.9,270.2 382.2,297.2 					"/>
					<polygon fill="#FFAF00" points="382.3,297.2 360.9,309.7 307.6,279.1 329.1,266.5 					"/>
					<polygon fill="#FFCC00" points="378,296.8 360.5,307 311.7,279.1 329.2,268.9 					"/>
				</g>
			</g>
			<g>
				<g>
					<polygon fill="#89ABFF" points="296.9,350.9 275.4,363.4 252.5,350.2 252.5,346.4 273.9,337.6 296.9,347.2 					"/>
					<polygon fill="#B3D4FF" points="296.9,347.2 275.4,359.7 252.5,346.4 273.9,333.9 					"/>
					<polygon fill="#D4EAFF" points="292.8,347.1 275.3,357.3 256.5,346.5 274.1,336.3 					"/>
				</g>
				<g>
					<polygon fill="#89ABFF" points="325.3,334.3 303.9,346.8 280.9,333.6 280.9,329.8 302.3,321 325.3,330.5 					"/>
					<polygon fill="#B3D4FF" points="325.3,330.5 303.9,343.1 280.9,329.8 302.3,317.3 					"/>
					<polygon fill="#D4EAFF" points="321.2,330.5 303.7,340.7 285,329.9 302.5,319.6 					"/>
				</g>
				<g>
					<polygon fill="#89ABFF" points="353.7,317.6 332.3,330.2 309.3,316.9 309.3,313.2 330.8,304.4 353.7,313.9 					"/>
					<polygon fill="#B3D4FF" points="353.7,313.9 332.3,326.4 309.3,313.2 330.8,300.7 					"/>
					<polygon fill="#D4EAFF" points="349.7,313.8 332.1,324.1 313.4,313.3 330.9,303 					"/>
				</g>
			</g>
		</g>
		<g>
			
				<text transform="matrix(0.8384 -0.4855 0.862 0.5069 150.9695 283.1499)" fill="#FFFFFF" font-family="'JosefinSans-Bold'" font-size="12.5504">AC</text>
			
				<text transform="matrix(0.8384 -0.4855 0.862 0.5069 182.6475 265.2946)" fill="#FFFFFF" font-family="'JosefinSans-Bold'" font-size="15.7379">C</text>
			
				<text transform="matrix(0.8384 -0.4855 0.862 0.5069 240.4415 230.3968)" fill="#FFFFFF" font-family="'JosefinSans-Bold'" font-size="11.2695">X</text>
			
				<text transform="matrix(0.8384 -0.4855 0.862 0.5069 344.8553 291.9041)" fill="#FFFFFF" font-family="'JosefinSans-Bold'" font-size="19.7892">+</text>
			
				<text transform="matrix(0.8384 -0.4855 0.862 0.5069 295.166 264.7635)" fill="#FFFFFF" font-family="'JosefinSans-Bold'" font-size="19.7892">_</text>
			<g>
				<path fill="#FFFFFF" d="M274.9,242.3l-7.6,4.4l-1.9-1.1l7.6-4.4L274.9,242.3z"/>
			</g>
			<path fill="#FFFFFF" d="M268.4,241c0.7,0.4,0.7,1.1,0.1,1.5c-0.7,0.4-1.8,0.4-2.5,0c-0.7-0.4-0.7-1.1-0.1-1.5
				C266.5,240.6,267.7,240.6,268.4,241z"/>
			<path fill="#FFFFFF" d="M275.5,245.1c0.7,0.4,0.7,1.1,0.1,1.5c-0.7,0.4-1.8,0.4-2.5,0c-0.7-0.4-0.7-1.1-0.1-1.5
				C273.6,244.7,274.8,244.7,275.5,245.1z"/>
			<text transform="matrix(0.8384 -0.4855 0.862 0.5069 207.7984 247.2748)"><tspan x="0" y="0" fill="#FFFFFF" font-family="'JosefinSans-Bold'" font-size="19.7892">+</tspan><tspan x="0.9" y="3.9" fill="#FFFFFF" font-family="'JosefinSans-Bold'" font-size="19.7892">_</tspan></text>
			
				<text transform="matrix(0.8384 -0.4855 0.862 0.5069 186.9008 299.8193)" fill="#FFFFFF" font-family="'JosefinSans-Bold'" font-size="19.7892">7</text>
			
				<text transform="matrix(0.8384 -0.4855 0.862 0.5069 215.0669 283.1989)" fill="#FFFFFF" font-family="'JosefinSans-Bold'" font-size="19.7892">8</text>
			
				<text transform="matrix(0.8384 -0.4855 0.862 0.5069 243.1533 266.3199)" fill="#FFFFFF" font-family="'JosefinSans-Bold'" font-size="19.7892">9</text>
			
				<text transform="matrix(0.8384 -0.4855 0.862 0.5069 215.0664 317.3477)" fill="#FFFFFF" font-family="'JosefinSans-Bold'" font-size="19.7892">4</text>
			
				<text transform="matrix(0.8384 -0.4855 0.862 0.5069 245.3439 300.4577)" fill="#FFFFFF" font-family="'JosefinSans-Bold'" font-size="19.7892">5</text>
			
				<text transform="matrix(0.8384 -0.4855 0.862 0.5069 271.9305 283.848)" fill="#FFFFFF" font-family="'JosefinSans-Bold'" font-size="19.7892">6</text>
			
				<text transform="matrix(0.8384 -0.4855 0.862 0.5069 249.1105 333.4215)" fill="#FFFFFF" font-family="'JosefinSans-Bold'" font-size="19.7892">1</text>
			
				<text transform="matrix(0.8384 -0.4855 0.862 0.5069 274.6903 318.2191)" fill="#FFFFFF" font-family="'JosefinSans-Bold'" font-size="19.7892">2</text>
			
				<text transform="matrix(0.8384 -0.4855 0.862 0.5069 303.2593 301.3763)" fill="#FFFFFF" font-family="'JosefinSans-Bold'" font-size="19.7892">3</text>
			
				<text transform="matrix(0.8384 -0.4855 0.862 0.5069 276.186 353.2112)" fill="#FFFFFF" font-family="'JosefinSans-Bold'" font-size="19.7892">0</text>
			
				<text transform="matrix(0.8384 -0.4855 0.862 0.5069 303.1116 331.5164)" fill="#FFFFFF" font-family="'JosefinSans-Bold'" font-size="19.7892">.</text>
			
				<text transform="matrix(0.8384 -0.4855 0.862 0.5069 330.7981 318.3961)" fill="#FFFFFF" font-family="'JosefinSans-Bold'" font-size="19.7892">=</text>
		</g>
	</g>
</g>
<g id="DESIGNED_BY_FREEPIK">
</g>
</svg>
